<svg xmlns="http://www.w3.org/2000/svg" data-noselect="" viewBox="183.51350758572 39.874634772419995 431.99999999999994 473.45388588153" width="431.99999999999994" ref="svg_canvas" height="473.45388588153" preserveAspectRatio="none" version="1.1" style="background: #FFFFFF;"><rect x="183.5135040283203" y="29.8746337890625" width="100%" height="100%" style="fill: url(#wm_tile);"/>
    <def/>
    <g id="shape_LuCFFq5l9m" ref="shape_LuCFFq5l9m" key="shape_LuCFFq5l9m" transform="translate(277.24541323779,119.87463477242) rotate(0,122.26809434793,114.1003079172) scale(1,1)" style="cursor:move;display:inline;opacity:1;" filter="">
            <g style="display:inline"><rect fill="rgba(0,0,0,0)" width="264.53618869585" height="248.2006158344" x="-10" y="-10"/><svg xmlns="http://www.w3.org/2000/svg" xmlns:xlink="http://www.w3.org/1999/xlink" version="1.1" id="图层_1" x="0px" y="0px" width="244.53618869585" height="228.2006158344" viewBox="1.7999995946884155 1 111.0161361694336 103.60000610351562" style="enable-background:new 0 0 115 106;" xml:space="preserve" class="style-removed" preserveAspectRatio="none" data-parent="shape_LuCFFq5l9m">

<g>
	<g>
		<path d="M102.1,68.2c-6.5,20.6-25.8,35.5-48.6,35.5c-16.3,0-30.9-7.7-40.2-19.6c1.3,1.1,3.2,1.2,4.6,0.3    c1.8-1.2,2.3-3.6,1.1-5.4c-1.2-1.8-0.7-4.2,1.1-5.4c1.5-1,3.5-0.8,4.8,0.4c0.3,0.4,0.5,0.7,0.8,1.1c6.5,8.1,16.5,13.3,27.7,13.3    c13.9,0,26-8,31.8-19.7c3.4,2.4,8.2,3.7,13.7,1.4C100.1,69.4,101.1,68.8,102.1,68.2z" fill="#15377C"/>
	</g>
	<g>
		<path d="M30.2,78.7c-1.2-0.1-1.8-1.1-1.9-2c-0.3-0.1-0.7-0.1-1-0.1c-1.4,0.2-2.4,1.5-2.3,2.9c0.2,1.4,1.5,2.4,2.9,2.3    c1.4-0.2,2.4-1.5,2.3-2.9C30.2,78.8,30.2,78.8,30.2,78.7z" fill="#FFFFFF"/>
	</g>
	<g>
		<circle cx="31.8" cy="96" r="3.2" fill="#FFFFFF"/>
	</g>
	<g>
		<circle cx="50.8" cy="90.6" r="2.9" fill="#FFFFFF"/>
	</g>
	<g>
		<path d="M71.3,100.6c0.2-0.1,0.5-0.1,0.7-0.1c0-1.1-0.4-2.3-1.3-3.1c-1.6-1.5-4.2-1.4-5.7,0.2    c-1.3,1.4-1.4,3.4-0.4,4.9C66.8,101.9,69.1,101.5,71.3,100.6z" fill="#FFFFFF"/>
	</g>
	<g>
		<path d="M79,78.9c-0.2-0.2-0.4-0.3-0.6-0.4c-0.1,0.3-0.3,0.6-0.5,0.9c-1.1,1.1-2.2,2-3.5,2.8c0.2,0.4,0.4,0.7,0.7,1    c1.2,1.1,3,1,4.1-0.1C80.2,81.9,80.2,80,79,78.9z" fill="#FFFFFF"/>
	</g>
	<g>
		<path d="M96.3,80.8c0.3-0.6,0.7-1.2,1.3-1.5c-0.2-0.6-0.5-1.2-1.1-1.7c-1.6-1.5-4-1.4-5.4,0.2c-1.5,1.6-1.4,4,0.2,5.4    c1,0.9,2.3,1.2,3.5,0.9C95.3,83,95.9,81.9,96.3,80.8z" fill="#FFFFFF"/>
	</g>
	<g>
		<path d="M53.5,104.6c-16.1,0-31-7.3-40.9-20c-0.3-0.4-0.2-0.9,0.1-1.2c0.3-0.3,0.8-0.3,1.2,0c1,0.8,2.5,0.9,3.6,0.2    c0.7-0.4,1.2-1.1,1.3-1.9c0.2-0.8,0-1.6-0.4-2.3c-1.4-2.2-0.8-5.2,1.4-6.6c1.8-1.2,4.3-1,5.9,0.5c0,0,0.1,0.1,0.1,0.1    c0.3,0.4,0.5,0.7,0.8,1c6.6,8.2,16.4,12.9,27,12.9c13.2,0,25.1-7.4,31-19.3c0.1-0.2,0.3-0.4,0.6-0.5c0.2-0.1,0.5,0,0.7,0.1    c2.2,1.6,6.9,3.8,12.9,1.3c1-0.4,2-1,2.9-1.6c0.3-0.2,0.7-0.2,1,0c0.3,0.2,0.4,0.6,0.3,1c-3.3,10.4-9.7,19.4-18.5,25.9    C75.4,101,64.7,104.6,53.5,104.6z M15.9,85.8c9.5,10.8,23.1,17,37.6,17c21.1,0,39.7-13,47-32.7c-0.4,0.2-0.8,0.4-1.1,0.5    c-6.1,2.5-11,0.7-13.7-0.9c-6.3,12-18.5,19.3-32.1,19.3c-11.1,0-21.4-5-28.3-13.6c-0.3-0.3-0.5-0.7-0.8-1c-1-0.9-2.5-1-3.7-0.3    c-1.4,0.9-1.8,2.8-0.9,4.2c0.7,1.1,0.9,2.3,0.7,3.6c-0.3,1.3-1,2.3-2.1,3C17.6,85.5,16.8,85.8,15.9,85.8z" fill="#15377C"/>
	</g>
</g>
<g>
	<path d="M53.5,89.1c-19.2,0-35.1-15-36.3-34.1c0,0,0,0,0-0.1v0c0-0.1,0-0.2,0-0.3c0,0,0,0,0-0.1c0-0.6,0-1.2,0-1.8   c0-20,16.3-36.3,36.3-36.3c8.8,0,17.3,3.2,23.9,9C84,31.1,88.3,39,89.5,47.5c0,0.3-0.1,0.6-0.3,0.8c-0.2,0.2-0.5,0.3-0.8,0.2   c-0.7-0.2-1.1-0.2-1.4-0.1c-1.3,0.3-2.9,1-5.2,4c-1.3,1.7-1.4,2.8-1.1,3.3c0.2,0.3,0.8,0.5,1.4,0.4c0.6-0.1,1.1-0.6,1.7-1.1   c0.9-0.8,2-1.7,3.8-1.9c0.5,0,0.9,0,1.5,0.2c1.7,0.5,3.8,1.8,4.7,3.8c0.6,1.3,0.6,2.6,0,3.9c0,0,0,0,0,0c-0.6,1.3-1.6,2.3-2.8,2.7   c-1.2,0.4-2.6,0.2-4-0.5c-0.7-0.4-1.3-0.9-1.8-1.5c-1.4-1.5-2.4-2.2-3.1-2.2c-0.2,0-0.6,0.1-1.3,1c-0.6,1,1,4.6,4.8,7.2   c0.4,0.2,0.5,0.7,0.3,1.1C79.9,81.3,67.4,89.1,53.5,89.1z M19,54.8c1.1,18.2,16.3,32.5,34.5,32.5c13,0,24.7-7.1,30.7-18.6   c-3.7-2.9-5.9-7.1-4.6-9.2c0,0,0,0,0,0c0.5-0.6,1.2-1.4,2.2-1.7c-1,0-2-0.4-2.5-1.2c-0.6-0.9-0.8-2.5,1.2-5.2   c2.5-3.4,4.4-4.3,6.1-4.7c0.3-0.1,0.6-0.1,1-0.1c-2.9-16.3-17.3-28.5-34.1-28.5c-19.1,0-34.6,15.5-34.6,34.6c0,0.6,0,1.1,0,1.7   C19,54.5,19,54.7,19,54.8L19,54.8z M82.4,57.8c1.2,0,2.5,0.9,4.2,2.7c0.4,0.5,0.9,0.8,1.4,1.1c0.9,0.5,1.8,0.6,2.6,0.4   c0.7-0.2,1.4-0.8,1.8-1.7c0.4-0.8,0.4-1.6,0-2.4c-0.7-1.4-2.3-2.5-3.6-2.9c-0.3-0.1-0.6-0.1-0.9-0.1c-1.2,0.1-1.9,0.7-2.8,1.4   c-0.7,0.6-1.5,1.3-2.5,1.5C82.5,57.8,82.5,57.8,82.4,57.8z M93.2,60.6L93.2,60.6L93.2,60.6z" fill="#15377C"/>
</g>
<g>
	<path d="M93.3,71.9c-3.8,0-6.8-1.6-8.5-2.7c-4.1-2.9-6.6-7.5-5.2-9.6c0,0,0,0,0,0c0.5-0.6,1.2-1.4,2.2-1.7   c-1,0-2-0.4-2.5-1.2c-0.6-0.9-0.8-2.5,1.2-5.2c2.5-3.4,4.4-4.3,6.1-4.7c0.6-0.2,1.4-0.1,2.3,0.1c1.3,0.4,2.8,1.2,3.9,1.9   c-0.5-3.2-1.2-9.2,0.8-11.9c0.6-0.8,1.5-1.3,2.5-1.4c0.8-0.1,1.5,0.2,2,0.8c1.6,1.6,2.1,5.6,2.2,9c0.7-1.6,1.5-3.2,2.4-4.2   c0.9-0.9,1.8-1.3,2.7-1.1c3.2,0.8,2.8,4.7,1.2,11.7c1.4-1.6,3.3-2.9,5-2c0.5,0.3,1.2,0.9,1.2,2.3c0.3,3.9-3.6,12.5-10.1,16.9   c-1,0.7-2.1,1.3-3.2,1.7C97.2,71.6,95.1,71.9,93.3,71.9z M81,60.5c-0.6,1,1,4.6,4.8,7.2c2.2,1.6,6.9,3.8,12.9,1.3   c1-0.4,2-1,2.9-1.6c0,0,0,0,0,0c6-4,9.6-11.9,9.4-15.4c0-0.6-0.2-0.8-0.3-0.9c-1.4-0.7-4,2.6-5.4,5c-0.2,0.4-0.7,0.5-1.1,0.4   c-0.4-0.2-0.6-0.6-0.5-1l0.2-0.8c1.8-7.6,3-12.6,0.9-13.2c-0.3-0.1-0.7,0.3-1,0.6c-2.1,2.2-3.8,8.8-3.8,8.8c-0.1,0.4-0.5,0.7-1,0.6   c-0.4-0.1-0.8-0.5-0.7-0.9c0.3-4.2,0.1-11.6-1.6-13.3c-0.3-0.3-0.5-0.3-0.7-0.3c-0.5,0-0.9,0.3-1.2,0.7c-1.8,2.5-0.7,9.9-0.1,12.5   c0.1,0.4-0.1,0.7-0.4,0.9c-0.3,0.2-0.7,0.2-1,0c0,0-2.9-2.1-5.1-2.8c-0.7-0.2-1.1-0.2-1.4-0.1c-1.3,0.3-2.9,1-5.2,4   c-1.3,1.7-1.4,2.8-1.1,3.3c0.2,0.3,0.8,0.5,1.4,0.4c0.6-0.1,1.1-0.6,1.7-1.1c0.9-0.8,2-1.7,3.8-1.9c0.5,0,0.9,0,1.5,0.2   c1.7,0.5,3.8,1.8,4.7,3.8c0.6,1.3,0.6,2.6,0,3.9c-0.6,1.3-1.6,2.3-2.8,2.7c-1.2,0.4-2.6,0.2-4-0.5c-0.7-0.4-1.3-0.9-1.8-1.5   c-1.4-1.5-2.4-2.2-3.1-2.2C82,59.5,81.7,59.7,81,60.5z M82.4,57.8c1.2,0,2.5,0.9,4.2,2.7c0.4,0.5,0.9,0.8,1.4,1.1   c0.9,0.5,1.8,0.6,2.6,0.4c0.7-0.2,1.4-0.8,1.8-1.7c0.4-0.8,0.4-1.6,0-2.4c-0.7-1.4-2.3-2.5-3.6-2.9c-0.3-0.1-0.6-0.1-0.9-0.1   c-1.2,0.1-1.9,0.7-2.8,1.4c-0.7,0.6-1.5,1.3-2.5,1.5C82.5,57.8,82.5,57.8,82.4,57.8z" fill="#15377C"/>
</g>
<g>
	<path d="M15.8,85.7c-1.1,0-2.1-0.4-3-1.1c0,0-0.1-0.1-0.1-0.1c-0.4-0.5-0.8-1-1.1-1.5c-5.8-8-9.1-17.4-9.7-27.3   c0-0.4,0-0.9-0.1-1.3c0-0.5,0-1.1,0-1.7C1.8,24.2,25,1,53.5,1c11.8,0,23.4,4.1,32.6,11.5c9,7.3,15.4,17.6,17.9,28.9   c0.1,0.2,0,0.5-0.2,0.7c-2.1,2.3-3.8,8.8-3.8,8.9c-0.1,0.4-0.5,0.6-0.8,0.5c-0.4-0.1-0.6-0.4-0.6-0.8c0.2-3.1,0.3-11.4-1.7-13.4   c-0.2-0.2-0.5-0.3-0.8-0.3c-0.5,0-0.9,0.3-1.3,0.8c-1.8,2.5-0.7,10-0.1,12.6c0.1,0.3-0.1,0.6-0.3,0.8c-0.3,0.2-0.6,0.2-0.8,0   c0,0-2.9-2.2-5.1-2.8c-0.3-0.1-0.5-0.3-0.5-0.6C85.5,30.8,70.7,18,53.5,18c-19.1,0-34.7,15.6-34.7,34.7c0,0.6,0,1.1,0,1.7   c0,0.1,0,0.2,0,0.4c0,0,0,0,0,0.1v0c0.4,6.7,2.7,13.1,6.8,18.5c0.2,0.3,0.2,0.7-0.1,1c-0.3,0.3-0.7,0.3-1,0c-1.1-1-2.7-1.1-3.9-0.3   c-1.5,1-1.9,2.9-0.9,4.4c0.7,1,0.9,2.3,0.7,3.5c-0.3,1.2-1,2.3-2,3C17.6,85.4,16.7,85.7,15.8,85.7z M13.8,83.5   c1.1,0.8,2.5,0.9,3.7,0.2c0.7-0.5,1.2-1.2,1.4-2c0.2-0.8,0-1.7-0.5-2.4c-1.4-2.2-0.8-5,1.4-6.5c0.9-0.6,2-0.9,3.1-0.7   c-3.3-5.2-5.2-11-5.6-17.2l0-0.1c0-0.1,0-0.3,0-0.4c0-0.6,0-1.2,0-1.8c0-20,16.2-36.2,36.2-36.2c8.8,0,17.2,3.2,23.8,8.9   c6.4,5.6,10.6,13.3,11.9,21.7c1.3,0.4,2.6,1.2,3.6,1.9c-0.5-3.1-1.3-9.4,0.7-12.1c0.6-0.8,1.4-1.3,2.4-1.4c0.7-0.1,1.4,0.2,1.9,0.7   c1.7,1.6,2.1,6,2.2,9.6c0.6-1.6,1.5-3.3,2.4-4.5C97.2,18.8,76.7,2.5,53.5,2.5C25.8,2.5,3.3,25,3.3,52.7c0,0.6,0,1.1,0,1.6   c0,0.4,0,0.9,0.1,1.3c0.5,9.6,3.8,18.7,9.4,26.5C13.1,82.6,13.5,83.1,13.8,83.5z" fill="#15377C"/>
</g>
<g>
	<path d="M19,79.5c-0.2,0-0.4-0.1-0.6-0.2c-3.7-4.1-5.6-8.6-5.6-8.8c-0.2-0.4,0-0.8,0.4-1c0.4-0.2,0.8,0,1,0.4   c0,0,1.9,4.5,5.4,8.3c0.3,0.3,0.3,0.8-0.1,1C19.4,79.5,19.2,79.5,19,79.5z" fill="#15377C"/>
</g>
<g>
	<path d="M35.5,67.9" fill="none"/>
</g>
<g>
	<g>
		<g>
			<g>
				<path d="M67.3,35c-0.2-3.2-1.2-5.6-3.1-7.1c-3.4-2.8-8.7-2-11.3-1.6c-0.3,0.1-0.7,0.1-0.9,0.1      c-1.3-1.8-2.9-2.9-5-3.3c-4.5-0.7-9.3,2.6-10.5,3.4c-2.3-0.3-4.4-0.3-6.3,0.1c-1,0.5-2.1,1-3,1.6c-0.1,0.2-0.2,0.3-0.3,0.5      c-0.3,0.4-0.7,0.8-1,1.3c0,0.1-0.1,0.1-0.1,0.2c-1.1,1.5-2,3-2.9,4.6c0,0,0,0.1-0.1,0.1c-0.2,0.4-0.5,0.9-0.7,1.3      c-0.2,0.6-0.3,1.1-0.4,1.6c0,0.1-0.1,0.3-0.1,0.4c0,0,0,0.1-0.1,0.1c-0.2,0.3-0.4,0.6-0.6,0.8c0,0.6-0.1,1.2-0.3,1.8      c0,0,0,0.1,0,0.1c0,0.9-0.6,1.3-0.6,1.6c-0.3,0.4-0.2,1.5-0.9,2.7c0.2,0.5,0.2,1.1-0.1,1.7c-0.3,0.6-0.4,1.2-0.6,1.8      c0,0,0,0,0,0c0,0,0,0.1,0,0.1c-0.1,0.3-0.1,0.5-0.1,0.8c0,0,0,0.1,0,0.1c0,0.3-0.1,0.5-0.1,0.8c0,0,0,0.1,0,0.1      c0,0.3,0,0.5,0,0.8c0,0.1,0,0.1,0,0.2c0,0.3,0,0.5,0,0.8c0,0.1,0,0.1,0,0.2c0,0.3,0,0.5,0,0.8c0,0.1,0,0.1,0,0.2      c0,0.2,0,0.3,0,0.5c0,0,0,0,0,0c0,0.7,0.1,1.4,0.1,2.1c0,0.1,0,0.2,0,0.3c0.6,1.8,1.4,3.5,2,5.3c0.1,0.3,0.1,0.5,0.1,0.7      c0,0,0,0,0,0.1c0,0.1,0,0.2,0,0.3c0,0,0,0,0,0c0,0.1-0.1,0.2-0.1,0.3c0.1,0.1,0.1,0.2,0.2,0.4c0,0,0,0,0,0c0,0,0,0.1,0,0.1      c0,0.1,0,0.3,0.1,0.4c0.1,0.3,0.1,0.6,0.1,0.9c1.1,1.4,2.5,2.7,4.1,3.9c1.9,1.4,3.8,2.1,5.6,2.1c0.6,0,1.2-0.1,1.8-0.2      c4.2-1.1,6.3-5.9,6.4-6.1l1.4-3.3c0.1-0.2,0.1-0.4,0-0.6c-0.1-0.2-0.3-0.3-0.5-0.4c-0.2-0.1-4.5-1.3-4.3-5.1      c0.1-1.3,0.7-2.2,2-2.6c1.2-0.4,2.5-0.3,3.6,0.4c1.1,0.7,1.9,1.8,2.1,3.1c0.2,1.3,0.1,2.3,0.1,2.3c0,0.3,0.1,0.6,0.4,0.8      c0.3,0.1,0.6,0.1,0.9-0.2c4.6-4.8,3.4-9.3,2.5-11.3c6.2-0.9,10.2-5.1,11.8-7.2c1.2,2.1,3.6,3,3.8,3.1c0.2,0.1,0.5,0.1,0.7-0.1      C67.5,40.1,67.3,35.2,67.3,35z" fill="#15377C"/>
			</g>
			<g>
				<path d="M52.6,85c-5.1,0-16.8-1.5-23.3-14.1c-0.2-0.4,0-0.8,0.3-1c0.4-0.2,0.8,0,1,0.3c7.2,14,20.8,13.5,23.7,13.2      c0.9-9.1-16.9-18-17.1-18.1c-0.4-0.2-0.5-0.6-0.3-1c0.2-0.4,0.6-0.5,1-0.3c0.8,0.4,19.7,9.9,17.8,20.2c-0.1,0.3-0.3,0.6-0.6,0.6      C55,84.9,54.1,85,52.6,85z M55,84.1L55,84.1L55,84.1z" fill="#15377C"/>
			</g>
			<g>
				<path d="M58.6,87.7c-0.4,0-0.7-0.3-0.7-0.6c-0.5-2.9-3.2-5-3.3-5c-0.2-0.2-0.4-0.5-0.3-0.8c0.1-0.3,0.3-0.5,0.7-0.5      c8.3-0.7,9.1-7.2,9.2-9.3c-8.5-0.7-10.5,4.6-10.6,4.8c-0.1,0.4-0.6,0.6-0.9,0.4c-0.4-0.1-0.6-0.6-0.4-0.9c0-0.1,2.6-7,12.8-5.8      c0.4,0,0.6,0.3,0.7,0.7c0,0.1,0.6,9.5-8.9,11.3c1,1,2.3,2.7,2.6,4.8c0.1,0.4-0.2,0.8-0.6,0.9C58.7,87.7,58.7,87.7,58.6,87.7z" fill="#15377C"/>
			</g>
			<g>
				<path d="M51.6,75.8c-0.1,0-0.3,0-0.4-0.1c-0.3-0.2-0.5-0.7-0.2-1c0.3-0.5,0.7-1.2,1-1.9c1.4-2.8,3.2-6.3,5.8-6.7      c0.8-0.1,1.6-0.1,2.5,0c2.4,0.1,4.6,0.2,5.9-2.4c1-3.4,1.2-6.4,0.5-9.6c-0.1-0.4,0.1-0.7,0.5-0.8c0,0,0.1,0,0.1,0      c0.3-0.1,1.3-0.4,1.1-1.7c-0.1-0.5-0.7-0.7-2-0.7c-0.2,0-0.3,0-0.4,0c-0.3,0-0.5-0.2-0.6-0.5c-1.5-4.1-3.5-6.4-3.5-6.4      c-0.3-0.3-0.2-0.8,0.1-1c0.3-0.3,0.8-0.2,1,0.1c0.1,0.1,2,2.3,3.6,6.4c1,0,3,0,3.3,1.9c0.3,1.7-0.6,2.7-1.5,3.2      c0.6,3.2,0.4,6.4-0.7,9.8c0,0,0,0.1,0,0.1c-1.7,3.6-4.8,3.4-7.3,3.3c-0.8,0-1.6-0.1-2.2,0c-1.9,0.3-3.5,3.5-4.7,5.9      c-0.4,0.8-0.8,1.5-1.1,2.1C52.1,75.7,51.9,75.8,51.6,75.8z" fill="#15377C"/>
			</g>
			<g>
				<path d="M68.8,85.6c-0.2,0-0.5-0.1-0.6-0.3c-2.1-3.2-6.7-5.7-6.8-5.7c-0.4-0.2-0.5-0.6-0.3-1c0.2-0.4,0.6-0.5,1-0.3      c0.2,0.1,5,2.8,7.3,6.2c0.2,0.3,0.1,0.8-0.2,1C69.1,85.6,68.9,85.6,68.8,85.6z" fill="#15377C"/>
			</g>
			<g>
				<path d="M58.9,52.4c-0.4,0-0.8-0.2-1-0.6l-1-1.8c-0.3-0.6-0.1-1.3,0.4-1.6c0.6-0.3,1.3-0.1,1.6,0.4l1,1.8      c0.3,0.6,0.1,1.3-0.4,1.6C59.3,52.3,59.1,52.4,58.9,52.4z" fill="#15377C"/>
			</g>
			<g>
				<path d="M54.2,79.9c-0.1,0-0.3,0-0.4-0.1c-0.3-0.2-0.4-0.7-0.2-1c0.1-0.2,3-4.1,7.3-5.3c0.4-0.1,0.8,0.1,0.9,0.5      c0.1,0.4-0.1,0.8-0.5,0.9c-3.9,1.1-6.5,4.7-6.5,4.7C54.7,79.8,54.5,79.9,54.2,79.9z" fill="#15377C"/>
			</g>
			<g>
				<path d="M23.6,73.8c-0.3,0-0.6-0.2-0.7-0.4c-0.2-0.4,0-0.8,0.4-1c2.9-1.3,5.1-1.5,6.2-1.6c0.2,0,0.5-0.1,0.6-0.1      c0.3-0.2,0.8,0,1,0.3c0.2,0.4,0.1,0.8-0.3,1c-0.3,0.1-0.6,0.2-1.1,0.2c-1.1,0.1-3.1,0.3-5.8,1.5C23.8,73.8,23.7,73.8,23.6,73.8z       M30.1,70.7C30.1,70.7,30.1,70.7,30.1,70.7C30.1,70.7,30.1,70.7,30.1,70.7z" fill="#15377C"/>
			</g>
		</g>
		<g>
			<circle cx="56.5" cy="57.8" r="3.6" fill="#ED5642"/>
		</g>
		<g>
			<path d="M65.2,60.8c-0.6,0-1.2-0.1-2-0.4c-0.4-0.1-0.6-0.5-0.5-0.9c0.1-0.4,0.5-0.6,0.9-0.5c2.5,0.8,3.5-0.6,3.5-0.6     c0.2-0.3,0.7-0.5,1-0.2c0.3,0.2,0.5,0.7,0.3,1C68.4,59.2,67.5,60.8,65.2,60.8z" fill="#15377C"/>
		</g>
		<g>
			<path d="M55,84.9c-0.1,0-0.2,0-0.2,0c-0.3-0.1-8.5-2.8-13.6-8.9c-0.3-0.3-0.2-0.8,0.1-1c0.3-0.3,0.8-0.2,1,0.1     c4.8,5.8,12.8,8.4,12.9,8.4c0.4,0.1,0.6,0.5,0.5,0.9C55.6,84.7,55.3,84.9,55,84.9z" fill="#15377C"/>
		</g>
	</g>
	<g>
		<path d="M40.7,57.7c-0.3,0-0.6-0.2-0.7-0.4c-0.8-1.7-2.1-1.5-2.3-1.5c-0.4,0.1-0.8-0.2-0.9-0.6    c-0.1-0.4,0.1-0.8,0.5-0.9c0.9-0.2,2.9,0,4,2.3c0.2,0.4,0,0.8-0.4,1C40.9,57.7,40.8,57.7,40.7,57.7z" fill="#15377C"/>
	</g>
</g>
</svg></g>
        </g><g id="shape_e3huJupn1t" ref="shape_e3huJupn1t" key="shape_e3huJupn1t" transform="translate(193.90350758571998,154.67742690395005) rotate(0,250.18454091017998,244.15109374999997) scale(1,1)" style="cursor:move;display:inline;opacity:1;" filter="">
            <g style="display:inline"><svg xmlns="http://www.w3.org/2000/svg" xmlns:xlink="http://www.w3.org/1999/xlink" version="1.1" width="550.44" height="488.30218749999995" viewBox="0 0 550.44 488.30218749999995" preserveAspectRatio="none" data-parent="shape_e3huJupn1t"><rect fill="rgba(0,0,0,0)" width="272" height="69" x="69.61" y="209.65109374999997"/><g data-width="271.633994433471" transform="translate(69.7930027832645, 0)"><path d="M14.55 0.27L14.55 0.27Q11.96 0.14 9.58-0.48Q7.21-1.09 5.44-3.13L5.44-3.13Q4.21-4.62 3.47-6.39Q2.72-8.16 2.58-10.13L2.58-10.13L2.58-20.33Q3.13-27.26 3.94-35.21Q4.76-43.17 5.44-50.17L5.44-50.17Q4.21-49.90 3.40-50.85L3.40-50.85Q2.86-51.53 2.99-52.62L2.99-52.62L3.53-53.57Q6.80-54.38 10.20-54.93Q13.60-55.47 17.27-55.47L17.27-55.47L25.22-55.47L30.52-55.88Q31.47-55.47 31.88-54.52L31.88-54.52L31.88-53.30Q31.47-52.34 30.52-51.94L30.52-51.94L25.22-51.53L17.27-51.53L9.92-50.85Q8.57-46.77 8.29-41.16Q8.02-35.55 7.34-31.20L7.34-31.20L13.19-31.20Q17.13-31.75 21.31-31.81Q25.49-31.88 29.43-32.43L29.43-32.43Q30.39-32.02 30.79-31.07L30.79-31.07L30.79-29.84Q30.39-28.89 29.43-28.48L29.43-28.48Q25.49-27.94 21.31-27.94Q17.13-27.94 13.19-27.26L13.19-27.26L7.07-27.26L6.53-20.33L6.53-10.40Q6.80-7.34 8.97-5.17L8.97-5.17Q10.60-4.21 12.44-3.94Q14.28-3.67 16.18-3.67L16.18-3.67Q20.05-4.62 23.59-6.25Q27.12-7.89 30.93-8.91L30.93-8.91Q31.88-8.43 32.29-7.48L32.29-7.48L32.29-6.25Q31.88-5.30 30.93-4.89L30.93-4.89Q26.99-3.40 23.04-1.70Q19.10 0 14.55 0.27Z" transform="translate(0 268.65109375) " fill="rgb(21, 55, 124)" stroke="rgb(21, 55, 124)" stroke-width="2.32" data-glyph-w="38.80485634763871" data-glyph-h="69.61" data-glyph-ascender="59.82109375" data-glyph-descender="-9.78890625"/><path d="M5.98 1.09L4.49 1.63L2.99 0.82Q2.45 0.14 2.58-0.95L2.58-0.95L2.99-1.90L2.99-10.81Q3.81-21.82 5.03-32.77Q6.25-43.71 9.38-54.25L9.38-54.25Q10.06-54.79 11.15-54.65L11.15-54.65Q12.10-54.25 12.51-53.30L12.51-53.30L12.51-51.80Q11.96-51.12 12.10-50.17L12.10-50.17Q15.77-39.63 18.59-28.82Q21.41-18.01 26.31-8.02L26.31-8.02L26.58-8.02L26.58-14.34Q26.85-24.40 27.40-34.57Q27.94-44.73 29.84-54.52L29.84-54.52Q30.66-55.33 32.02-55.20L32.02-55.20Q32.97-54.79 33.38-53.84L33.38-53.84L33.38-52.75Q31.75-43.30 31.34-33.65Q30.93-24.00 30.52-14.34L30.52-14.34L30.52-7.61L30.66-7.48L30.66-1.90L30.79-0.68Q30.25 0.41 29.16 0.95L29.16 0.95L28.08 0.95Q25.49-1.22 23.93-4.08Q22.36-6.93 20.73-9.72L20.73-9.72Q17.47-17.74 15.33-26.17Q13.19-34.60 10.60-42.89L10.60-42.89L10.33-42.89Q9.38-34.87 8.36-26.92Q7.34-18.97 6.93-10.81L6.93-10.81L6.93-1.63Q7.07 0 5.98 1.09L5.98 1.09Z" transform="translate(38.80485634763871 268.65109375) " fill="rgb(21, 55, 124)" stroke="rgb(21, 55, 124)" stroke-width="2.32" data-glyph-w="38.80485634763871" data-glyph-h="69.61" data-glyph-ascender="59.82109375" data-glyph-descender="-9.78890625"/><path d="M26.04 2.18L24.95 2.18Q24.00 1.77 23.59 0.82L23.59 0.82L23.45-1.50L23.66-6.80Q20.87-3.94 17.84-2.18Q14.82-0.41 11.28 0.14L11.28 0.14Q8.43 0 6.39-2.18L6.39-2.18Q4.21-4.62 3.60-7.85Q2.99-11.08 2.72-14.34L2.72-14.34L2.72-25.63Q2.99-32.97 6.12-40.21Q9.25-47.45 14.68-53.02L14.68-53.02Q16.45-54.52 18.52-55.27Q20.60-56.01 23.04-55.74L23.04-55.74Q26.17-55.33 28.35-52.75L28.35-52.75Q29.57-51.66 29.30-49.90L29.30-49.90Q28.89-48.94 27.94-48.54L27.94-48.54L26.85-48.54Q25.49-50.30 23.45-51.53L23.45-51.53L20.46-51.80Q18.56-51.12 16.86-49.62L16.86-49.62Q12.24-44.46 9.65-38.24Q7.07-32.02 6.66-25.63L6.66-25.63L6.66-14.34Q6.93-11.76 7.34-9.31Q7.75-6.87 9.38-4.76L9.38-4.76Q10.47-3.81 11.83-3.81L11.83-3.81Q16.93-5.91 18.80-7.41Q20.67-8.91 24.13-12.30L24.13-12.30L24.27-17.47L24.27-22.91L15.91-22.91Q14.82-23.32 14.28-24.40L14.28-24.40L14.28-25.49Q14.68-26.44 15.64-26.85L15.64-26.85L24.54-26.85L26.85-26.58L30.66-26.58Q31.61-26.17 32.02-25.22L32.02-25.22L32.02-24.13Q31.61-23.18 30.66-22.77L30.66-22.77L28.21-22.64L28.08-17.33L28.08-10.26L27.40-0.54L27.53 0.68Q27.12 1.77 26.04 2.18L26.04 2.18Z" transform="translate(77.60971269527742 268.65109375) " fill="rgb(21, 55, 124)" stroke="rgb(21, 55, 124)" stroke-width="2.32" data-glyph-w="38.80485634763871" data-glyph-h="69.61" data-glyph-ascender="59.82109375" data-glyph-descender="-9.78890625"/><path d="M9.38-0.27L5.98 0.54L4.49-0.27Q3.94-1.09 4.08-2.18L4.08-2.18Q5.98-15.43 7.55-26.99Q9.11-38.54 10.33-50.17L10.33-50.17L8.84-50.98Q8.29-51.66 8.43-52.75L8.43-52.75Q8.84-53.70 9.79-54.11L9.79-54.11L12.78-54.11L14.14-53.30Q14.82-52.21 14.55-50.71L14.55-50.71Q13.19-39.36 11.69-28.14Q10.20-16.93 8.43-4.08L8.43-4.08L8.84-4.08L8.97-4.21L14.68-4.21L19.92-3.94L27.26-3.94L29.84-3.67L31.47-3.94Q32.43-3.53 32.83-2.58L32.83-2.58L32.83-1.50Q32.29-0.27 31.07 0.14L31.07 0.14L28.75 0.27L26.72 0L19.65 0L9.38-0.27Z" transform="translate(116.41456904291613 268.65109375) " fill="rgb(21, 55, 124)" stroke="rgb(21, 55, 124)" stroke-width="2.32" data-glyph-w="38.80485634763871" data-glyph-h="69.61" data-glyph-ascender="59.82109375" data-glyph-descender="-9.78890625"/><path d="M21.69 1.09L14.41 1.09Q12.24 0.95 10.60-0.41L10.60-0.41Q10.06-1.09 10.20-2.18L10.20-2.18Q10.60-3.13 11.56-3.53L11.56-3.53L12.92-3.53L14.41-2.99Q14.28-6.73 14.68-11.22Q15.09-15.70 15.36-19.37L15.36-19.37L15.64-35.01L16.59-44.39L16.59-51.53Q14.14-51.12 12.24-52.34L12.24-52.34Q11.69-53.02 11.83-54.11L11.83-54.11Q12.24-55.06 13.19-55.47L13.19-55.47L16.59-55.61L22.36-55.61Q24.40-55.61 25.90-54.52L25.90-54.52Q26.44-53.84 26.31-52.75L26.31-52.75Q25.90-51.80 24.95-51.39L24.95-51.39L23.86-51.26Q22.36-51.80 20.60-51.66L20.60-51.66L20.60-44.39Q20.46-42.49 20.12-39.70Q19.78-36.91 19.65-35.01L19.65-35.01L19.31-23.93L18.42-8.36L18.42-2.86L20.87-2.86L22.36-3.13Q23.32-2.72 23.72-1.77L23.72-1.77L23.72-0.41Q23.32 0.54 22.36 0.95L22.36 0.95L21.69 1.09Z" transform="translate(155.21942539055485 268.65109375) " fill="rgb(21, 55, 124)" stroke="rgb(21, 55, 124)" stroke-width="2.32" data-glyph-w="38.80485634763871" data-glyph-h="69.61" data-glyph-ascender="59.82109375" data-glyph-descender="-9.78890625"/><path d="M12.37 0.27L12.37 0.27L10.88-0.54Q10.33-1.22 10.47-2.31L10.47-2.31Q10.88-3.26 11.83-3.67L11.83-3.67Q16.31-3.26 19.82-5.64Q23.32-8.02 26.44-11.22L26.44-11.22Q27.67-12.58 28.35-14.21Q29.03-15.84 28.75-17.88L28.75-17.88Q28.35-21.82 26.85-23.45L26.85-23.45Q21.55-26.31 15.53-26.51Q9.52-26.72 4.49-30.11L4.49-30.11Q2.99-31.61 2.58-33.51Q2.18-35.42 2.31-37.46L2.31-37.46Q2.45-40.99 3.81-44.08Q5.17-47.18 7.61-49.76L7.61-49.76Q10.74-52.62 14.38-54.65Q18.01-56.69 22.50-56.29L22.50-56.29Q24.40-56.15 25.97-55.27Q27.53-54.38 28.89-52.89L28.89-52.89Q30.66-51.12 30.25-48.40L30.25-48.40Q29.84-47.45 28.89-47.04L28.89-47.04L27.67-47.04Q26.72-47.45 26.31-48.40L26.31-48.40Q26.58-49.76 25.49-50.71L25.49-50.71Q23.04-52.89 19.65-52.34L19.65-52.34Q16.72-51.66 14.28-49.96Q11.83-48.26 9.52-46.09L9.52-46.09Q7.75-43.71 6.93-40.99Q6.12-38.27 6.25-35.14L6.25-35.14Q6.53-33.51 7.89-32.29L7.89-32.29Q13.73-30.52 19.88-29.91Q26.04-29.30 30.79-25.08L30.79-25.08Q32.02-23.32 32.43-20.33Q32.83-17.33 32.70-15.02L32.70-15.02Q32.29-12.58 30.93-10.57Q29.57-8.57 27.67-6.80L27.67-6.80Q24.40-3.67 20.70-1.56Q16.99 0.54 12.37 0.27Z" transform="translate(194.02428173819357 268.65109375) " fill="rgb(21, 55, 124)" stroke="rgb(21, 55, 124)" stroke-width="2.32" data-glyph-w="38.80485634763871" data-glyph-h="69.61" data-glyph-ascender="59.82109375" data-glyph-descender="-9.78890625"/><path d="M27.94 2.31L26.85 2.31Q25.90 1.90 25.49 0.95L25.49 0.95L25.36 0.41L25.36-6.66Q25.76-11.62 25.97-16.52Q26.17-21.41 26.31-26.44L26.31-26.44L11.01-26.44L9.52-26.31Q8.70-19.65 8.23-12.88Q7.75-6.12 6.53 0.41L6.53 0.41Q5.85 0.95 4.76 0.82L4.76 0.82Q3.81 0.41 3.40-0.54L3.40-0.54L3.26-4.35Q4.21-10.13 4.55-15.97Q4.89-21.82 5.71-27.53L5.71-27.53L5.57-28.75Q6.93-34.60 7.68-41.50Q8.43-48.40 10.06-54.25L10.06-54.25Q10.74-54.79 11.83-54.65L11.83-54.65Q12.78-54.25 13.19-53.30L13.19-53.30L13.19-52.07Q12.37-47.04 11.62-41.16Q10.88-35.28 10.06-30.25L10.06-30.25L10.88-30.25L11.01-30.39L25.76-30.39L26.44-30.52Q26.72-36.37 27.46-42.18Q28.21-47.99 29.71-53.57L29.71-53.57Q30.52-54.25 31.75-54.11L31.75-54.11Q32.70-53.70 33.11-52.75L33.11-52.75L33.11-51.66Q30.66-40.45 30.39-29.09Q30.11-17.74 29.30-6.25L29.30-6.25L29.30 0.95Q28.89 1.90 27.94 2.31L27.94 2.31Z" transform="translate(232.82913808583228 268.65109375) " fill="rgb(21, 55, 124)" stroke="rgb(21, 55, 124)" stroke-width="2.32" data-glyph-w="38.80485634763871" data-glyph-h="69.61" data-glyph-ascender="59.82109375" data-glyph-descender="-9.78890625"/></g></svg></g>
        </g>
  </svg>